<svg width="24" height="24" viewBox="0 0 24 24" fill="none" xmlns="http://www.w3.org/2000/svg">
<path d="M13.7818 11.6727C13.7166 11.4933 13.5409 11.3918 13.3529 11.425C12.367 11.5899 9.35767 12.2472 8.16027 14.3455C7.18251 16.0391 7.66078 18.1581 9.23236 19.0654C10.8039 19.9728 12.876 19.3312 13.8537 17.6377C15.0477 15.5779 14.1263 12.6107 13.7818 11.6727Z" stroke="white" stroke-width="1.5" stroke-miterlimit="10"/>
<path d="M21.2644 8.07001C21.2202 7.9484 21.101 7.87961 20.9736 7.90214C20.3053 8.01393 18.2654 8.45948 17.4537 9.88184C16.7909 11.0298 17.1151 12.4662 18.1805 13.0813C19.2458 13.6963 20.6503 13.2615 21.3131 12.1135C22.1224 10.7172 21.4978 8.70586 21.2644 8.07001Z" stroke="white" stroke-width="1.5" stroke-miterlimit="10"/>
<path d="M7.8504 4.70977C7.79885 4.56789 7.65983 4.48762 7.51118 4.51392C6.73145 4.64434 4.35142 5.16417 3.40443 6.82369C2.63114 8.16307 3.00939 9.83895 4.25232 10.5566C5.49525 11.2742 7.13399 10.7668 7.90728 9.42742C8.85153 7.79835 8.1228 5.45164 7.8504 4.70977Z" stroke="white" stroke-width="1.5" stroke-miterlimit="10"/>
</svg>
