<svg width="24" height="24" viewBox="0 0 24 24" fill="none" xmlns="http://www.w3.org/2000/svg">
<path d="M14.4545 12.1658H18.7991C20.0182 12.1658 21 11.1124 21 9.82397C21 8.52684 20.01 7.48218 18.7991 7.48218C17.58 7.48218 16.5982 8.53555 16.5982 9.82397" stroke="white" stroke-width="1.5" stroke-miterlimit="10" stroke-linecap="round" stroke-linejoin="round"/>
<path d="M5.45453 10.0939H11.7034C13.2273 10.0939 14.4545 8.72333 14.4545 7.04694C14.4545 5.35923 13.217 4 11.7034 4C10.1795 4 8.95225 5.37056 8.95225 7.04694" stroke="white" stroke-width="1.5" stroke-miterlimit="10" stroke-linecap="round" stroke-linejoin="round"/>
<path d="M3 14.0113H11.7034C13.2273 14.0113 14.4545 15.3819 14.4545 17.0583C14.4545 18.746 13.217 20.1052 11.7034 20.1052C10.1795 20.1052 8.95227 18.7347 8.95227 17.0583" stroke="white" stroke-width="1.5" stroke-miterlimit="10" stroke-linecap="round" stroke-linejoin="round"/>
</svg>
